<svg xmlns="http://www.w3.org/2000/svg" width="14.815" height="14.813" viewBox="0 0 29.63 29.625">
  <metadata><?xpacket begin="﻿" id="W5M0MpCehiHzreSzNTczkc9d"?>
<x:xmpmeta xmlns:x="adobe:ns:meta/" x:xmptk="Adobe XMP Core 5.6-c138 79.159824, 2016/09/14-01:09:01        ">
   <rdf:RDF xmlns:rdf="http://www.w3.org/1999/02/22-rdf-syntax-ns#">
      <rdf:Description rdf:about=""/>
   </rdf:RDF>
</x:xmpmeta>
                                                                                                    
                                                                                                    
                                                                                                    
                                                                                                    
                                                                                                    
                                                                                                    
                                                                                                    
                                                                                                    
                                                                                                    
                                                                                                    
                                                                                                    
                                                                                                    
                                                                                                    
                                                                                                    
                                                                                                    
                                                                                                    
                                                                                                    
                                                                                                    
                                                                                                    
                                                                                                    
                           
<?xpacket end="w"?></metadata>
<defs>
    <style>
      .cls-1 {
        fill-rule: evenodd;
        opacity: 0.87;
      }
    </style>
  </defs>
  <path id="edit_copy_2" data-name="edit copy 2" class="cls-1" d="M2544.63,543.874l0.7-2.121,1.42,1.414-2.12.707m-1.42,1.415c0.29,0.29,1.42-.049,1.42,0l5.65-1.415-5.65-5.657-1.42,5.657a2.473,2.473,0,0,0,0,1.415h0Zm8.49-2.829-5.66-5.657,16.26-16.263,5.66,5.657Zm-2.83-5.657,2.83,2.828,13.43-13.434-2.83-2.829Zm20.5-12.021-5.65-5.656,2.83-2.829a2.17,2.17,0,0,1,2.82,0l2.83,2.829a2.2,2.2,0,0,1,0,2.828Zm-2.82-5.656,2.82,2.828c0.29-.286.35-0.275,0.72-0.648a0.866,0.866,0,0,0-.01-1.473l-1.41-1.415a0.873,0.873,0,0,0-1.42,0A8.97,8.97,0,0,1,2566.55,519.126Z" transform="translate(-2543.09 -515.781)"/>
</svg>
