<svg xmlns="http://www.w3.org/2000/svg" width="109" height="45" viewBox="0 0 218 90">
  <metadata><?xpacket begin="﻿" id="W5M0MpCehiHzreSzNTczkc9d"?>
<x:xmpmeta xmlns:x="adobe:ns:meta/" x:xmptk="Adobe XMP Core 5.6-c138 79.159824, 2016/09/14-01:09:01        ">
   <rdf:RDF xmlns:rdf="http://www.w3.org/1999/02/22-rdf-syntax-ns#">
      <rdf:Description rdf:about=""/>
   </rdf:RDF>
</x:xmpmeta>
                                                                                                    
                                                                                                    
                                                                                                    
                                                                                                    
                                                                                                    
                                                                                                    
                                                                                                    
                                                                                                    
                                                                                                    
                                                                                                    
                                                                                                    
                                                                                                    
                                                                                                    
                                                                                                    
                                                                                                    
                                                                                                    
                                                                                                    
                                                                                                    
                                                                                                    
                                                                                                    
                           
<?xpacket end="w"?></metadata>
<defs>
    <style>
      .cls-1 {
        fill: #e65400;
        fill-rule: evenodd;
      }
    </style>
  </defs>
  <path id="Logo" class="cls-1" d="M295.325,110h-27.45a3.493,3.493,0,0,0-3.165,2.5L254.68,150H244.7l10.7-40c1.478-5.523,7.144-10,12.657-10H298Zm-52.943,30c-1.477,5.523-7.143,10-12.656,10H199.781l-5.35,20H184.45L200.5,110c1.477-5.523,7.143-10,12.656-10H243.1c5.512,0,8.784,4.477,7.306,10Zm-4.453-30H212.975a3.491,3.491,0,0,0-3.164,2.5L202.455,140h27.45a3.491,3.491,0,0,0,3.164-2.5l6.687-25A1.852,1.852,0,0,0,237.929,110Zm-68.452,60,5.349-20H144.881c-5.513,0-8.784-4.477-7.307-10l10.7-40h9.982l-10.03,37.5a1.852,1.852,0,0,0,1.826,2.5H177.5l10.7-40h9.982l-18.723,70h-9.982Zm-39.569-20h-9.981l10.03-37.5a1.853,1.853,0,0,0-1.827-2.5H100.68l-10.7,40H80L98.723,80H108.7l-5.349,20H133.3c5.513,0,8.784,4.477,7.307,10Z" transform="translate(-80 -80)"/>
</svg>
