<svg xmlns="http://www.w3.org/2000/svg" width="15" height="16" viewBox="0 0 30 32">
  <metadata><?xpacket begin="﻿" id="W5M0MpCehiHzreSzNTczkc9d"?>
<x:xmpmeta xmlns:x="adobe:ns:meta/" x:xmptk="Adobe XMP Core 5.6-c138 79.159824, 2016/09/14-01:09:01        ">
   <rdf:RDF xmlns:rdf="http://www.w3.org/1999/02/22-rdf-syntax-ns#">
      <rdf:Description rdf:about=""/>
   </rdf:RDF>
</x:xmpmeta>
                                                                                                    
                                                                                                    
                                                                                                    
                                                                                                    
                                                                                                    
                                                                                                    
                                                                                                    
                                                                                                    
                                                                                                    
                                                                                                    
                                                                                                    
                                                                                                    
                                                                                                    
                                                                                                    
                                                                                                    
                                                                                                    
                                                                                                    
                                                                                                    
                                                                                                    
                                                                                                    
                           
<?xpacket end="w"?></metadata>
<defs>
    <style>
      .cls-1 {
        fill: #e65400;
        fill-rule: evenodd;
      }
    </style>
  </defs>
  <path id="refresh" class="cls-1" d="M760.106,120.343a13.338,13.338,0,0,1,17.01-.438l-3.894.144a0.889,0.889,0,0,0-.871.915,0.9,0.9,0,0,0,.9.85h0.033l5.978-.216a0.891,0.891,0,0,0,.871-0.882v-0.1h0l-0.221-5.764a0.905,0.905,0,0,0-1.809.065l0.14,3.614a15.169,15.169,0,0,0-19.355.51,14.3,14.3,0,0,0-4.477,14.189,0.9,0.9,0,0,0,.878.673,0.791,0.791,0,0,0,.215-0.026,0.882,0.882,0,0,0,.663-1.065A12.558,12.558,0,0,1,760.106,120.343Zm23.477,6.431a0.908,0.908,0,0,0-1.092-.647,0.884,0.884,0,0,0-.664,1.066,12.54,12.54,0,0,1-3.934,12.463,13.337,13.337,0,0,1-17.116.353l3.94-.346a0.883,0.883,0,1,0-.167-1.758l-5.958.522a0.888,0.888,0,0,0-.818.961l0.536,5.81a0.894,0.894,0,0,0,.9.8,0.369,0.369,0,0,0,.081-0.006,0.888,0.888,0,0,0,.817-0.961l-0.321-3.536a15,15,0,0,0,8.6,3.2c0.255,0.013.51,0.02,0.758,0.02a15,15,0,0,0,9.965-3.752A14.289,14.289,0,0,0,783.583,126.774Z" transform="translate(-754 -114)"/>
</svg>
